<svg xmlns="http://www.w3.org/2000/svg" height="48" viewBox="0 96 960 960" width="48"><path d="M479.967 993.196q-85.912 0-162.458-32.52-76.546-32.52-133.106-89.199-56.559-56.679-89.079-133.258-32.52-76.579-32.52-162.697 0-85.401 32.593-162.064 32.593-76.662 89.106-133.257 56.513-56.594 133.185-89.115 76.672-32.521 162.318-32.521 85.645 0 162.287 32.508 76.642 32.507 133.133 89.079 56.491 56.571 89.25 133.27 32.759 76.699 32.759 162.1 0 86.118-32.617 162.735-32.616 76.617-89.17 133.209t-133.161 89.161q-76.608 32.569-162.52 32.569Zm.033-77.305q142.179 0 241.035-98.975 98.856-98.976 98.856-241.394 0-58.492-19.282-112.692-19.283-54.2-55.326-99.243L267.826 840.804q44.112 37.508 98.656 56.298Q421.027 915.891 480 915.891ZM215.717 787.696l476.218-476.457q-45.327-36.906-99.278-56.018Q538.706 236.109 480 236.109q-142.179 0-241.035 98.825t-98.856 240.588q0 59.056 20.851 113.452 20.851 54.395 54.757 98.722Z"/></svg>