<svg xmlns="http://www.w3.org/2000/svg" height="48" viewBox="0 96 960 960" width="48"><path d="M62.804 354.435v-195.87h195.631v77.544H140.109v118.326H62.804Zm0 638.761V797.565h77.305v118.326h118.326v77.305H62.805Zm638.761 0v-77.305h118.326V797.565h77.544v195.631h-195.87Zm118.326-638.761V236.109H701.565v-77.544h195.87v195.87h-77.544Zm-108.326 454.13h64.283v64.283h-64.283v-64.283Zm0-128.804h64.283v64.282h-64.283v-64.282Zm-64.522 64.282h64.522v64.522h-64.522v-64.522Zm-64.282 64.522h64.282v64.283h-64.282v-64.283Zm-64.522-64.522h64.522v64.522h-64.522v-64.522Zm128.804-128.804h64.522v64.522h-64.522v-64.522Zm-64.282 64.522h64.282v64.282h-64.282v-64.282Zm-64.522-64.522h64.522v64.522h-64.522v-64.522Zm257.609-336.087v257.609H518.239V279.152h257.609ZM440.761 615.239v257.609H183.152V615.239h257.609Zm0-336.087v257.609H183.152V279.152h257.609Zm-58.239 534.696v-140.37h-140.37v140.37h140.37Zm0-335.326v-140.37h-140.37v140.37h140.37Zm334.326 0v-140.37h-140.37v140.37h140.37Z"/></svg>